<?xml version="1.0" encoding="UTF-8" standalone="no"?>
<!-- Created with Inkscape (http://www.inkscape.org/) -->

<svg
   width="1000mm"
   height="1000mm"
   viewBox="0 0 1000 1000"
   version="1.1"
   id="svg5"
   inkscape:version="1.2.2 (b0a8486541, 2022-12-01)"
   sodipodi:docname="shopping_list.svg"
   xmlns:inkscape="http://www.inkscape.org/namespaces/inkscape"
   xmlns:sodipodi="http://sodipodi.sourceforge.net/DTD/sodipodi-0.dtd"
   xmlns="http://www.w3.org/2000/svg"
   xmlns:svg="http://www.w3.org/2000/svg">
  <sodipodi:namedview
     id="namedview7"
     pagecolor="#505050"
     bordercolor="#ffffff"
     borderopacity="1"
     inkscape:showpageshadow="0"
     inkscape:pageopacity="0"
     inkscape:pagecheckerboard="1"
     inkscape:deskcolor="#505050"
     inkscape:document-units="mm"
     showgrid="false"
     inkscape:zoom="0.2516066"
     inkscape:cx="1965.3697"
     inkscape:cy="1301.6351"
     inkscape:window-width="1878"
     inkscape:window-height="1014"
     inkscape:window-x="20"
     inkscape:window-y="20"
     inkscape:window-maximized="1"
     inkscape:current-layer="layer1" />
  <defs
     id="defs2">
    <inkscape:path-effect
       effect="fillet_chamfer"
       id="path-effect4758"
       is_visible="true"
       lpeversion="1"
       nodesatellites_param="F,0,0,1,0,2.6458333,0,1 @ F,0,0,1,0,2.6458333,0,1 @ F,0,0,1,0,2.6458333,0,1 @ F,0,0,1,0,2.6458333,0,1"
       unit="px"
       method="auto"
       mode="F"
       radius="10"
       chamfer_steps="1"
       flexible="false"
       use_knot_distance="true"
       apply_no_radius="true"
       apply_with_radius="true"
       only_selected="false"
       hide_knots="false" />
  </defs>
  <g
     inkscape:label="Layer 1"
     inkscape:groupmode="layer"
     id="layer1">
    <path
       style="fill:#ffffff;stroke:#000000;stroke-width:10;stroke-dasharray:none;stroke-opacity:1"
       id="rect3142"
       width="682.04346"
       height="991.52771"
       x="172.63477"
       y="9.4250288"
       inkscape:path-effect="#path-effect4758"
       d="m 175.2806,9.4250288 676.75179,0 a 2.6458333,2.6458333 45 0 1 2.64583,2.6458332 V 998.30691 a 2.6458333,2.6458333 135 0 1 -2.64583,2.64579 H 175.2806 a 2.6458333,2.6458333 45 0 1 -2.64583,-2.64579 V 12.070862 a 2.6458333,2.6458333 135 0 1 2.64583,-2.6458332 z"
       sodipodi:type="rect" />
    <rect
       style="fill:#ffffff;stroke:#000000;stroke-width:4.06114;stroke-dasharray:none;stroke-opacity:1"
       id="rect4812"
       width="30.261518"
       height="30.261518"
       x="197.72865"
       y="190.09344" />
    <text
       xml:space="preserve"
       style="font-size:17.63888889px;line-height:1.25;font-family:'Comic Sans MS';stroke-width:10;stroke-dasharray:none;-inkscape-font-specification:'Comic Sans MS, Normal';font-weight:normal;font-style:normal;font-stretch:normal;font-variant:normal;font-variant-ligatures:normal;font-variant-caps:normal;font-variant-numeric:normal;font-variant-east-asian:normal"
       x="314.13651"
       y="224.18193"
       id="text4868"><tspan
         sodipodi:role="line"
         id="tspan4866"
         style="stroke-width:10;stroke-dasharray:none;-inkscape-font-specification:'Comic Sans MS, Normal';font-family:'Comic Sans MS';font-weight:normal;font-style:normal;font-stretch:normal;font-variant:normal;font-size:17.63888889px;font-variant-ligatures:normal;font-variant-caps:normal;font-variant-numeric:normal;font-variant-east-asian:normal"
         x="314.13651"
         y="224.18193" /></text>
    <text
       xml:space="preserve"
       style="font-size:17.63888889px;line-height:1.25;font-family:'Comic Sans MS';white-space:pre;inline-size:7.88397;stroke-width:110;stroke-dasharray:none;-inkscape-font-specification:'Comic Sans MS, Normal';font-weight:normal;font-style:normal;font-stretch:normal;font-variant:normal;font-variant-ligatures:normal;font-variant-caps:normal;font-variant-numeric:normal;font-variant-east-asian:normal"
       x="310.9567"
       y="241.0108"
       id="text4872"><tspan
         x="310.9567"
         y="241.0108"
         id="tspan5583">a</tspan></text>
    <text
       xml:space="preserve"
       style="font-style:normal;font-variant:normal;font-weight:normal;font-stretch:normal;font-size:119.39px;line-height:1.25;font-family:'Comic Sans MS';-inkscape-font-specification:'Comic Sans MS, Normal';font-variant-ligatures:normal;font-variant-caps:normal;font-variant-numeric:normal;font-variant-east-asian:normal;stroke-width:0.35817"
       x="395.09903"
       y="112.52839"
       id="text4926"><tspan
         sodipodi:role="line"
         id="tspan4924"
         style="font-style:normal;font-variant:normal;font-weight:normal;font-stretch:normal;font-size:119.39px;font-family:'Comic Sans MS';-inkscape-font-specification:'Comic Sans MS, Normal';font-variant-ligatures:normal;font-variant-caps:normal;font-variant-numeric:normal;font-variant-east-asian:normal;stroke-width:0.35817"
         x="395.09903"
         y="112.52839">List</tspan></text>
    <path
       style="fill:#ff0000;stroke:#fd0000;stroke-width:6.76857;stroke-linecap:butt;stroke-linejoin:miter;stroke-dasharray:none;stroke-opacity:1"
       d="M 234.5739,229.67485 H 797.36976"
       id="path4930" />
    <path
       style="fill:none;stroke:#000000;stroke-width:6.76857;stroke-linecap:butt;stroke-linejoin:miter;stroke-dasharray:none;stroke-opacity:1"
       d="m 249.8605,213.09382 c -0.22579,-1.58047 -1.56853,-8.80601 -0.92233,-11.06782 0.23891,-0.83611 1.12111,-1.3623 1.84466,-1.84465 0.51161,-0.34104 1.22974,0 1.84461,0 0.61487,0 1.35274,-0.36892 1.84461,0 1.0431,0.78232 3.28925,5.65598 3.68937,6.4562 0.30742,0.61491 0.43618,1.35857 0.92229,1.84472 0.2174,0.21738 0.61487,0 0.92232,0 0.30742,0 0.61487,0 0.92233,0 1.84464,0 3.68929,0 5.53394,0 5.53394,0 11.06788,0 16.60178,0 2.76698,0 5.56611,0.42074 8.30092,0 2.59624,-0.39943 4.83022,-2.12994 7.3786,-2.76705 0.29825,-0.0746 0.70492,-0.21736 0.92228,0 0.21741,0.21741 -0.25579,0.7518 0,0.92233 0.80897,0.53929 1.85672,0.58103 2.76705,0.92239 1.55019,0.58135 3.07435,1.22978 4.61155,1.84461 1.53722,0.61491 3.27267,0.87086 4.61165,1.84465 2.10981,1.53437 3.68929,3.68929 5.53399,5.53395 0.61487,0.61487 1.22974,2.45952 1.84461,1.84465 0.86956,-0.86957 0,-2.45952 0,-3.68926 0,-2.45953 0,-4.91908 0,-7.3786 0,-0.57518 -0.55975,-4.24908 0.92232,-2.767 0.48607,0.48606 0.50981,1.29463 0.92229,1.84461 0.49857,0.66477 5.87478,6.16554 6.45629,6.45627 0.27497,0.13749 0.61487,0 0.9223,0 0.92232,0 1.84464,0 2.76693,0 4.61163,0 9.22324,0 13.83486,0 0.30745,0 0.87895,-0.30437 0.92232,0 0.30437,2.13648 0,4.31608 0,6.47413 0,1.84823 0,3.69647 0,5.54465 0,1.84469 0,3.68933 0,5.53398 0,0.61488 0,2.45949 0,1.84462 0,-5.5598 -1.67788,-12.38703 3.68933,-16.6018 6.67479,-5.24157 13.99228,-3.69524 21.72864,-3.69524 1.23037,0 2.46074,0 3.69109,0 0.30742,0 1.22974,0 0.92229,0 -0.92229,0 -3.68922,0 -2.76694,0 1.5372,0 3.07439,0 4.61159,0 7.07114,0 14.14228,0 21.21346,0 2.4595,0 5.00571,0.64715 7.37855,0 1.2584,-0.34316 1.98433,-1.72344 2.76696,-2.76693 0.18447,-0.24592 0.30743,-0.92229 0,-0.92229 -0.30744,0 0,0.61487 0,0.92229 0,1.53722 0,3.07446 0,4.61165 0,6.60641 -1.52175,4.64744 6.45627,5.53388 0.61112,0.0679 1.22974,0 1.84463,0 6.66264,0 7.70148,1.25087 12.91252,-4.61155 3.54456,-3.98762 -0.96318,-3.68933 1.84465,-3.68933 0.92233,0 1.84469,0 2.76701,0 0.61487,0 1.33304,-0.3411 1.84465,0 2.35508,1.5701 2.85322,3.94147 5.53394,4.61166 1.44618,0.36149 6.25427,-0.80116 6.4562,-0.92233 0.52726,-0.31634 -0.27501,-1.29468 0,-1.84461 0.1375,-0.27501 0.61494,0 0.92239,0 0.30746,0 0.70492,-0.21742 0.92233,0 1.74185,1.74181 0.43524,1.74098 0.92228,3.68922 0.16677,0.66695 0.70495,2.4968 0.92233,1.84464 0.3433,-1.02995 -0.44545,-8.33233 0,-9.22323 0.1375,-0.27497 0.61487,0 0.92233,0 0.61487,0 1.40982,-0.43479 1.84461,0 0.55302,0.55302 2.52309,5.87317 3.68933,6.45631 2.14791,1.07392 5.78255,0.92228 8.30092,0.92228 5.84135,0 11.68271,0 17.52411,0 1.84465,0 3.69688,0.16701 5.53394,0 23.12845,-2.10253 -8.5622,0.5644 14.75719,-2.76694 3.04351,-0.43478 6.14881,0 9.2232,0 5.53394,0 11.06789,0 16.6018,0 5.84139,0 11.68276,0 17.52411,0 2.86021,0 -0.30824,1.22931 0.9224,1.84466 0.54997,0.27496 1.22978,0 1.84465,0 0.30741,0 0.82507,0.29165 0.92228,0 0.29166,-0.87502 -0.1018,-1.85029 0,-2.76694 0.20244,-1.82176 0.78834,-6.18833 1.84466,-8.30099 0.1944,-0.38891 0.49596,-0.83708 0.92228,-0.92232 0.43919,-0.0879 7.43942,-0.21538 8.30092,0 0.66695,0.16672 1.62731,0.27009 1.84472,0.92232 0.48611,1.45832 0,3.07442 0,4.61162 0,0.61487 -0.27501,1.29468 0,1.84465 0.13746,0.27497 0.61487,0 0.92229,0 0.30745,0 0.61491,0 0.92232,0 0.92233,0 1.84461,0 2.76694,0 1.53722,0 3.12034,-0.37285 4.61165,0 2.27151,0.56787 4.44854,1.56237 6.45627,2.767 1.11845,0.67111 1.84464,1.84466 2.76694,2.76694 0.30744,0.30746 0.53342,0.72787 0.92231,0.92233 0.72727,0.36365 8.40605,0 10.14553,0 0.30746,0 0.61494,0 0.9224,0 0.30745,0 0.70492,0.21736 0.92232,0 0.21738,-0.21742 -0.0746,-0.62405 0,-0.92233 0.23579,-0.94317 0.31498,-2.00776 0.92229,-2.76694 1.6156,-2.01951 9.63646,-4.49418 10.14553,-4.61165 1.79745,-0.41477 3.68933,0 5.53398,0 0.24538,0 2.69079,-0.1523 2.76694,0 0.27496,0.54997 0,1.22978 0,1.84465 0,1.80822 -0.5696,5.88666 0.92228,7.37858 0.43479,0.43479 1.22979,0 1.84466,0 7.99492,0 -1.00707,-0.24119 8.30098,0.9223 2.06639,0.2583 4.36834,0 6.45619,0 0.30741,0 0.82509,0.29166 0.9223,0 0.3737,-1.12108 -0.34284,-4.383 0,-4.61155 0.76741,-0.51161 1.84464,0 2.76692,0 1.25361,0 11.02738,-0.27512 11.99025,0 1.06585,0.30452 1.77549,1.34889 2.76694,1.84461 0.67948,0.33976 5.02982,0 6.45638,0 5.22648,0 10.45298,0 15.67947,0 0.30745,0 0.88836,0.30555 0.92232,0 0.13861,-1.24772 -0.80541,-13.95177 0.92233,-15.67947 0.43475,-0.43479 1.22974,0 1.84461,0 3.38188,0 6.76371,0 10.1456,0 1.22974,0 2.58936,-0.54998 3.68925,0 2.14767,1.07386 3.83683,2.91292 5.53387,4.61165 3.10491,3.10796 8.86117,9.65645 12.04971,13.90775 0.66512,0.88679 1.34891,1.77549 1.84465,2.76694 0.13746,0.275 -0.30745,0.92232 0,0.92232 0.30742,0 0,-0.61487 0,-0.92232 0,-2.15211 0,-4.30418 0,-6.45627 0,-0.92233 -0.41248,-1.942 0,-2.76694 1.31244,-2.62489 4.15825,-3.35817 6.45616,-4.61155 13.16368,-7.1802 1.18443,-1.62459 10.14563,-4.61165 0.65216,-0.21741 1.19246,-0.70492 1.84462,-0.92233 0.29166,-0.0972 0.61487,0 0.92231,0 0.61487,0 1.50357,-0.51161 1.84462,0 4.89998,7.35002 2.79824,6.56573 4.61158,12.91247 0.18887,0.66103 0.43618,1.35857 0.92229,1.84472 0.21741,0.21736 0.82512,0.29166 0.92233,0 0.29165,-0.87501 0,-1.84469 0,-2.76705 0,-0.30741 -0.24596,-0.73782 0,-0.92228 5.14472,-3.85836 12.4108,-2.76694 18.44658,-2.76694 3.68926,0 7.37853,0 11.06775,0 0.92239,0 1.84475,0 2.76711,0 1.22978,0 2.48882,-0.2668 3.68927,0 1.61617,0.35914 3.0054,1.44307 4.61157,1.84461 0.89475,0.22368 1.86252,-0.18088 2.76694,0 0.67408,0.13483 1.17766,0.75559 1.84461,0.92233 1.81427,0.45355 3.70846,0.51662 5.53405,0.92228 0.94905,0.2109 1.84461,0.61487 2.76694,0.92233 1.22974,0.61491 2.34709,1.54643 3.68926,1.84472 1.50063,0.33349 3.0745,0 4.61172,0 2.15207,0 4.30414,0 6.4562,0"
       id="path4997" />
    <rect
       style="fill:#ffffff;stroke:#000000;stroke-width:4.06114;stroke-dasharray:none;stroke-opacity:1"
       id="rect4812-7"
       width="30.261518"
       height="30.261518"
       x="196.03279"
       y="252.54291" />
    <path
       style="fill:#ff0000;stroke:#fd0000;stroke-width:6.76857;stroke-linecap:butt;stroke-linejoin:miter;stroke-dasharray:none;stroke-opacity:1"
       d="M 232.87806,292.12431 H 795.67392"
       id="path4930-9" />
    <path
       style="fill:none;stroke:#000000;stroke-width:6.76857;stroke-linecap:butt;stroke-linejoin:miter;stroke-dasharray:none;stroke-opacity:1"
       d="m 248.16466,275.54328 c -0.22578,-1.58046 -1.56853,-8.806 -0.92232,-11.06782 0.2389,-0.83611 1.1211,-1.36229 1.84465,-1.84465 0.51161,-0.34104 1.22974,0 1.84461,0 0.61487,0 1.35274,-0.36891 1.84461,0 1.04311,0.78233 3.28926,5.65598 3.68937,6.4562 0.30742,0.61491 0.43618,1.35857 0.92229,1.84472 0.2174,0.21738 0.61487,0 0.92232,0 0.30742,0 0.61487,0 0.92233,0 1.84464,0 3.68929,0 5.53394,0 5.53394,0 11.06789,0 16.60179,0 2.76697,0 5.5661,0.42075 8.30092,0 2.59623,-0.39943 4.83021,-2.12993 7.37859,-2.76704 0.29825,-0.0746 0.70492,-0.21737 0.92229,0 0.2174,0.2174 -0.2558,0.75179 0,0.92232 0.80896,0.53929 1.85671,0.58103 2.76704,0.92239 1.55019,0.58136 3.07435,1.22979 4.61155,1.84462 1.53722,0.61491 3.27267,0.87085 4.61166,1.84465 2.1098,1.53436 3.68929,3.68929 5.53398,5.53394 0.61487,0.61487 1.22974,2.45952 1.84461,1.84465 0.86956,-0.86957 0,-2.45952 0,-3.68926 0,-2.45952 0,-4.91907 0,-7.3786 0,-0.57517 -0.55975,-4.24907 0.92233,-2.767 0.48606,0.48606 0.5098,1.29464 0.92228,1.84461 0.49857,0.66477 5.87478,6.16555 6.4563,6.45627 0.27496,0.1375 0.61487,0 0.92229,0 0.92232,0 1.84464,0 2.76693,0 4.61163,0 9.22324,0 13.83486,0 0.30746,0 0.87895,-0.30437 0.92233,0 0.30437,2.13648 0,4.31609 0,6.47414 0,1.84822 0,3.69646 0,5.54465 0,1.84469 0,3.68933 0,5.53398 0,0.61487 0,2.45948 0,1.84461 0,-5.5598 -1.67789,-12.38702 3.68933,-16.6018 6.67478,-5.24157 13.99227,-3.69523 21.72864,-3.69523 1.23036,0 2.46074,0 3.69109,0 0.30741,0 1.22974,0 0.92228,0 -0.92228,0 -3.68922,0 -2.76694,0 1.5372,0 3.0744,0 4.61159,0 7.07114,0 14.14228,0 21.21346,0 2.45951,0 5.00571,0.64714 7.37855,0 1.2584,-0.34317 1.98433,-1.72344 2.76697,-2.76694 0.18447,-0.24592 0.30742,-0.92228 0,-0.92228 -0.30745,0 0,0.61487 0,0.92228 0,1.53722 0,3.07446 0,4.61166 0,6.60641 -1.52175,4.64743 6.45626,5.53387 0.61112,0.068 1.22974,0 1.84463,0 6.66264,0 7.70148,1.25087 12.91252,-4.61155 3.54456,-3.98762 -0.96318,-3.68933 1.84465,-3.68933 0.92233,0 1.84469,0 2.76701,0 0.61487,0 1.33304,-0.34109 1.84465,0 2.35508,1.57011 2.85322,3.94148 5.53394,4.61166 1.44619,0.36149 6.25427,-0.80116 6.4562,-0.92233 0.52726,-0.31633 -0.27501,-1.29468 0,-1.84461 0.1375,-0.275 0.61494,0 0.92239,0 0.30746,0 0.70492,-0.21742 0.92233,0 1.74185,1.74181 0.43525,1.74099 0.92229,3.68922 0.16676,0.66695 0.70494,2.49681 0.92232,1.84464 0.3433,-1.02994 -0.44545,-8.33232 0,-9.22323 0.1375,-0.27497 0.61487,0 0.92233,0 0.61487,0 1.40982,-0.43479 1.84461,0 0.55302,0.55302 2.52309,5.87317 3.68933,6.45631 2.14791,1.07393 5.78255,0.92228 8.30092,0.92228 5.84136,0 11.68271,0 17.52411,0 1.84465,0 3.69688,0.16701 5.53394,0 23.12845,-2.10253 -8.5622,0.56441 14.75719,-2.76693 3.04351,-0.43479 6.14881,0 9.2232,0 5.53395,0 11.06789,0 16.6018,0 5.84139,0 11.68276,0 17.52411,0 2.86021,0 -0.30824,1.2293 0.9224,1.84465 0.54997,0.27497 1.22978,0 1.84465,0 0.30742,0 0.82508,0.29166 0.92229,0 0.29165,-0.87501 -0.1018,-1.85028 0,-2.76694 0.20243,-1.82176 0.78833,-6.18833 1.84465,-8.30099 0.1944,-0.3889 0.49596,-0.83708 0.92228,-0.92232 0.43919,-0.0879 7.43942,-0.21538 8.30092,0 0.66695,0.16672 1.62732,0.27009 1.84472,0.92232 0.48611,1.45832 0,3.07442 0,4.61162 0,0.61487 -0.27501,1.29468 0,1.84465 0.13746,0.27497 0.61487,0 0.92229,0 0.30745,0 0.61491,0 0.92232,0 0.92233,0 1.84461,0 2.76694,0 1.53722,0 3.12034,-0.37285 4.61166,0 2.2715,0.56787 4.44853,1.56238 6.45626,2.76701 1.11846,0.6711 1.84464,1.84465 2.76694,2.76693 0.30744,0.30746 0.53342,0.72787 0.92231,0.92233 0.72727,0.36365 8.40605,0 10.14554,0 0.30745,0 0.61493,0 0.92239,0 0.30745,0 0.70492,0.21737 0.92232,0 0.21738,-0.21742 -0.0746,-0.62405 0,-0.92233 0.23579,-0.94317 0.31499,-2.00776 0.92229,-2.76693 1.6156,-2.01951 9.63647,-4.49418 10.14553,-4.61166 1.79745,-0.41476 3.68933,0 5.53398,0 0.24538,0 2.69079,-0.15229 2.76694,0 0.27497,0.54997 0,1.22978 0,1.84465 0,1.80823 -0.5696,5.88667 0.92229,7.37858 0.43478,0.43479 1.22978,0 1.84465,0 7.99492,0 -1.00707,-0.24119 8.30099,0.9223 2.06639,0.2583 4.36834,0 6.45618,0 0.30742,0 0.82509,0.29166 0.9223,0 0.37371,-1.12108 -0.34284,-4.383 0,-4.61155 0.76741,-0.51161 1.84464,0 2.76692,0 1.25361,0 11.02738,-0.27511 11.99025,0 1.06585,0.30452 1.7755,1.3489 2.76694,1.84461 0.67948,0.33976 5.02982,0 6.45638,0 5.22648,0 10.45298,0 15.67947,0 0.30746,0 0.88836,0.30555 0.92233,0 0.1386,-1.24771 -0.80542,-13.95176 0.92232,-15.67947 0.43475,-0.43478 1.22974,0 1.84461,0 3.38188,0 6.76371,0 10.1456,0 1.22974,0 2.58936,-0.54997 3.68925,0 2.14767,1.07386 3.83683,2.91292 5.53388,4.61166 3.1049,3.10795 8.86116,9.65645 12.0497,13.90774 0.66512,0.88679 1.34891,1.77549 1.84465,2.76694 0.13746,0.27501 -0.30745,0.92233 0,0.92233 0.30742,0 0,-0.61487 0,-0.92233 0,-2.15211 0,-4.30417 0,-6.45627 0,-0.92232 -0.41247,-1.94199 0,-2.76693 1.31244,-2.6249 4.15825,-3.35818 6.45616,-4.61155 13.16368,-7.18021 1.18444,-1.62459 10.14563,-4.61166 0.65216,-0.21741 1.19246,-0.70492 1.84462,-0.92232 0.29166,-0.0972 0.61487,0 0.92232,0 0.61487,0 1.50357,-0.51161 1.84461,0 4.89998,7.35001 2.79825,6.56572 4.61159,12.91246 0.18887,0.66104 0.43618,1.35858 0.92228,1.84472 0.21741,0.21737 0.82512,0.29166 0.92233,0 0.29165,-0.87501 0,-1.84469 0,-2.76704 0,-0.30742 -0.24596,-0.73783 0,-0.92229 5.14472,-3.85835 12.41081,-2.76694 18.44658,-2.76694 3.68927,0 7.37853,0 11.06775,0 0.9224,0 1.84475,0 2.76711,0 1.22979,0 2.48882,-0.2668 3.68927,0 1.61617,0.35915 3.00541,1.44308 4.61157,1.84462 0.89475,0.22367 1.86252,-0.18089 2.76694,0 0.67408,0.13483 1.17766,0.75558 1.84461,0.92232 1.81428,0.45355 3.70846,0.51662 5.53405,0.92229 0.94905,0.21089 1.84461,0.61487 2.76694,0.92232 1.22974,0.61491 2.3471,1.54643 3.68926,1.84472 1.50063,0.33349 3.0745,0 4.61173,0 2.15206,0 4.30413,0 6.4562,0"
       id="path4997-2" />
    <rect
       style="fill:#ffffff;stroke:#000000;stroke-width:4.06114;stroke-dasharray:none;stroke-opacity:1"
       id="rect4812-7-2"
       width="30.261518"
       height="30.261518"
       x="196.02612"
       y="310.64288" />
    <path
       style="fill:#ff0000;stroke:#fd0000;stroke-width:6.76857;stroke-linecap:butt;stroke-linejoin:miter;stroke-dasharray:none;stroke-opacity:1"
       d="M 232.87139,350.22427 H 795.66725"
       id="path4930-9-3" />
    <path
       style="fill:none;stroke:#000000;stroke-width:6.76857;stroke-linecap:butt;stroke-linejoin:miter;stroke-dasharray:none;stroke-opacity:1"
       d="m 248.15799,333.64324 c -0.22578,-1.58046 -1.56853,-8.806 -0.92232,-11.06782 0.2389,-0.83611 1.1211,-1.36229 1.84465,-1.84465 0.51161,-0.34104 1.22974,0 1.84461,0 0.61487,0 1.35274,-0.36891 1.84461,0 1.04311,0.78233 3.28926,5.65598 3.68937,6.4562 0.30742,0.61491 0.43618,1.35857 0.92229,1.84472 0.2174,0.21738 0.61487,0 0.92232,0 0.30742,0 0.61487,0 0.92233,0 1.84464,0 3.68929,0 5.53394,0 5.53394,0 11.06789,0 16.60179,0 2.76697,0 5.5661,0.42075 8.30092,0 2.59623,-0.39943 4.83021,-2.12993 7.37859,-2.76704 0.29825,-0.0746 0.70492,-0.21737 0.92229,0 0.2174,0.2174 -0.2558,0.75179 0,0.92232 0.80896,0.53929 1.85671,0.58103 2.76704,0.92239 1.55019,0.58136 3.07435,1.22979 4.61155,1.84462 1.53722,0.61491 3.27267,0.87085 4.61166,1.84465 2.1098,1.53436 3.68929,3.68929 5.53398,5.53394 0.61487,0.61487 1.22974,2.45952 1.84461,1.84465 0.86956,-0.86957 0,-2.45952 0,-3.68926 0,-2.45952 0,-4.91907 0,-7.3786 0,-0.57517 -0.55975,-4.24907 0.92233,-2.767 0.48606,0.48606 0.5098,1.29464 0.92228,1.84461 0.49857,0.66477 5.87478,6.16555 6.4563,6.45627 0.27496,0.1375 0.61487,0 0.92229,0 0.92232,0 1.84464,0 2.76693,0 4.61163,0 9.22324,0 13.83486,0 0.30746,0 0.87895,-0.30437 0.92233,0 0.30437,2.13648 0,4.31609 0,6.47414 0,1.84822 0,3.69646 0,5.54465 0,1.84469 0,3.68933 0,5.53398 0,0.61487 0,2.45948 0,1.84461 0,-5.5598 -1.67789,-12.38702 3.68933,-16.6018 6.67478,-5.24157 13.99227,-3.69523 21.72864,-3.69523 1.23036,0 2.46074,0 3.69109,0 0.30741,0 1.22974,0 0.92228,0 -0.92228,0 -3.68922,0 -2.76694,0 1.5372,0 3.0744,0 4.61159,0 7.07114,0 14.14228,0 21.21346,0 2.45951,0 5.00571,0.64714 7.37855,0 1.2584,-0.34317 1.98433,-1.72344 2.76697,-2.76694 0.18447,-0.24592 0.30742,-0.92228 0,-0.92228 -0.30745,0 0,0.61487 0,0.92228 0,1.53722 0,3.07446 0,4.61166 0,6.60641 -1.52175,4.64743 6.45626,5.53387 0.61112,0.068 1.22974,0 1.84463,0 6.66264,0 7.70148,1.25087 12.91252,-4.61155 3.54456,-3.98762 -0.96318,-3.68933 1.84465,-3.68933 0.92233,0 1.84469,0 2.76701,0 0.61487,0 1.33304,-0.34109 1.84465,0 2.35508,1.57011 2.85322,3.94148 5.53394,4.61166 1.44619,0.36149 6.25427,-0.80116 6.4562,-0.92233 0.52726,-0.31633 -0.27501,-1.29468 0,-1.84461 0.1375,-0.275 0.61494,0 0.92239,0 0.30746,0 0.70492,-0.21742 0.92233,0 1.74185,1.74181 0.43525,1.74099 0.92229,3.68922 0.16676,0.66695 0.70494,2.49681 0.92232,1.84464 0.3433,-1.02994 -0.44545,-8.33232 0,-9.22323 0.1375,-0.27497 0.61487,0 0.92233,0 0.61487,0 1.40982,-0.43479 1.84461,0 0.55302,0.55302 2.52309,5.87317 3.68933,6.45631 2.14791,1.07393 5.78255,0.92228 8.30092,0.92228 5.84136,0 11.68271,0 17.52411,0 1.84465,0 3.69688,0.16701 5.53394,0 23.12845,-2.10253 -8.5622,0.56441 14.75719,-2.76693 3.04351,-0.43479 6.14881,0 9.2232,0 5.53395,0 11.06789,0 16.6018,0 5.84139,0 11.68276,0 17.52411,0 2.86021,0 -0.30824,1.2293 0.9224,1.84465 0.54997,0.27497 1.22978,0 1.84465,0 0.30742,0 0.82508,0.29166 0.92229,0 0.29165,-0.87501 -0.1018,-1.85028 0,-2.76694 0.20243,-1.82176 0.78833,-6.18833 1.84465,-8.30099 0.1944,-0.3889 0.49596,-0.83708 0.92228,-0.92232 0.43919,-0.0879 7.43942,-0.21538 8.30092,0 0.66695,0.16672 1.62732,0.27009 1.84472,0.92232 0.48611,1.45832 0,3.07442 0,4.61162 0,0.61487 -0.27501,1.29468 0,1.84465 0.13746,0.27497 0.61487,0 0.92229,0 0.30745,0 0.61491,0 0.92232,0 0.92233,0 1.84461,0 2.76694,0 1.53722,0 3.12034,-0.37285 4.61166,0 2.2715,0.56787 4.44853,1.56238 6.45626,2.76701 1.11846,0.6711 1.84464,1.84465 2.76694,2.76693 0.30744,0.30746 0.53342,0.72787 0.92231,0.92233 0.72727,0.36365 8.40605,0 10.14554,0 0.30745,0 0.61493,0 0.92239,0 0.30745,0 0.70492,0.21737 0.92232,0 0.21738,-0.21742 -0.0746,-0.62405 0,-0.92233 0.23579,-0.94317 0.31499,-2.00776 0.92229,-2.76693 1.6156,-2.01951 9.63647,-4.49418 10.14553,-4.61166 1.79745,-0.41476 3.68933,0 5.53398,0 0.24538,0 2.69079,-0.15229 2.76694,0 0.27497,0.54997 0,1.22978 0,1.84465 0,1.80823 -0.5696,5.88667 0.92229,7.37858 0.43478,0.43479 1.22978,0 1.84465,0 7.99492,0 -1.00707,-0.24119 8.30099,0.9223 2.06639,0.2583 4.36834,0 6.45618,0 0.30742,0 0.82509,0.29166 0.9223,0 0.37371,-1.12108 -0.34284,-4.383 0,-4.61155 0.76741,-0.51161 1.84464,0 2.76692,0 1.25361,0 11.02738,-0.27511 11.99025,0 1.06585,0.30452 1.7755,1.3489 2.76694,1.84461 0.67948,0.33976 5.02982,0 6.45638,0 5.22648,0 10.45298,0 15.67947,0 0.30746,0 0.88836,0.30555 0.92233,0 0.1386,-1.24771 -0.80542,-13.95176 0.92232,-15.67947 0.43475,-0.43478 1.22974,0 1.84461,0 3.38188,0 6.76371,0 10.1456,0 1.22974,0 2.58936,-0.54997 3.68925,0 2.14767,1.07386 3.83683,2.91292 5.53388,4.61166 3.1049,3.10795 8.86116,9.65645 12.0497,13.90774 0.66512,0.88679 1.34891,1.77549 1.84465,2.76694 0.13746,0.27501 -0.30745,0.92233 0,0.92233 0.30742,0 0,-0.61487 0,-0.92233 0,-2.15211 0,-4.30417 0,-6.45627 0,-0.92232 -0.41247,-1.94199 0,-2.76693 1.31244,-2.6249 4.15825,-3.35818 6.45616,-4.61155 13.16368,-7.18021 1.18444,-1.62459 10.14563,-4.61166 0.65216,-0.21741 1.19246,-0.70492 1.84462,-0.92232 0.29166,-0.0972 0.61487,0 0.92232,0 0.61487,0 1.50357,-0.51161 1.84461,0 4.89998,7.35001 2.79825,6.56572 4.61159,12.91246 0.18887,0.66104 0.43618,1.35858 0.92228,1.84472 0.21741,0.21737 0.82512,0.29166 0.92233,0 0.29165,-0.87501 0,-1.84469 0,-2.76704 0,-0.30742 -0.24596,-0.73783 0,-0.92229 5.14472,-3.85835 12.41081,-2.76694 18.44658,-2.76694 3.68927,0 7.37853,0 11.06775,0 0.9224,0 1.84475,0 2.76711,0 1.22979,0 2.48882,-0.2668 3.68927,0 1.61617,0.35915 3.00541,1.44308 4.61157,1.84462 0.89475,0.22367 1.86252,-0.18089 2.76694,0 0.67408,0.13483 1.17766,0.75558 1.84461,0.92232 1.81428,0.45355 3.70846,0.51662 5.53405,0.92229 0.94905,0.21089 1.84461,0.61487 2.76694,0.92232 1.22974,0.61491 2.3471,1.54643 3.68926,1.84472 1.50063,0.33349 3.0745,0 4.61173,0 2.15206,0 4.30413,0 6.4562,0"
       id="path4997-2-7" />
    <rect
       style="fill:#ffffff;stroke:#000000;stroke-width:4.06114;stroke-dasharray:none;stroke-opacity:1"
       id="rect4812-7-5"
       width="30.261518"
       height="30.261518"
       x="196.18369"
       y="367.21521" />
    <path
       style="fill:#ff0000;stroke:#fd0000;stroke-width:6.76857;stroke-linecap:butt;stroke-linejoin:miter;stroke-dasharray:none;stroke-opacity:1"
       d="M 233.02895,406.79662 H 795.82481"
       id="path4930-9-9" />
    <path
       style="fill:none;stroke:#000000;stroke-width:6.76857;stroke-linecap:butt;stroke-linejoin:miter;stroke-dasharray:none;stroke-opacity:1"
       d="m 248.31555,390.21559 c -0.22578,-1.58046 -1.56853,-8.806 -0.92232,-11.06782 0.2389,-0.83611 1.1211,-1.36229 1.84465,-1.84465 0.51161,-0.34104 1.22974,0 1.84461,0 0.61487,0 1.35274,-0.36891 1.84461,0 1.04311,0.78233 3.28926,5.65598 3.68937,6.4562 0.30742,0.61491 0.43618,1.35857 0.92229,1.84472 0.2174,0.21738 0.61487,0 0.92232,0 0.30742,0 0.61487,0 0.92233,0 1.84464,0 3.68929,0 5.53394,0 5.53394,0 11.06789,0 16.60179,0 2.76697,0 5.5661,0.42075 8.30092,0 2.59623,-0.39943 4.83021,-2.12993 7.37859,-2.76704 0.29825,-0.0746 0.70492,-0.21737 0.92229,0 0.2174,0.2174 -0.2558,0.75179 0,0.92232 0.80896,0.53929 1.85671,0.58103 2.76704,0.92239 1.55019,0.58136 3.07435,1.22979 4.61155,1.84462 1.53722,0.61491 3.27267,0.87085 4.61166,1.84465 2.1098,1.53436 3.68929,3.68929 5.53398,5.53394 0.61487,0.61487 1.22974,2.45952 1.84461,1.84465 0.86956,-0.86957 0,-2.45952 0,-3.68926 0,-2.45952 0,-4.91907 0,-7.3786 0,-0.57517 -0.55975,-4.24907 0.92233,-2.767 0.48606,0.48606 0.5098,1.29464 0.92228,1.84461 0.49857,0.66477 5.87478,6.16555 6.4563,6.45627 0.27496,0.1375 0.61487,0 0.92229,0 0.92232,0 1.84464,0 2.76693,0 4.61163,0 9.22324,0 13.83486,0 0.30746,0 0.87895,-0.30437 0.92233,0 0.30437,2.13648 0,4.31609 0,6.47414 0,1.84822 0,3.69646 0,5.54465 0,1.84469 0,3.68933 0,5.53398 0,0.61487 0,2.45948 0,1.84461 0,-5.5598 -1.67789,-12.38702 3.68933,-16.6018 6.67478,-5.24157 13.99227,-3.69523 21.72864,-3.69523 1.23036,0 2.46074,0 3.69109,0 0.30741,0 1.22974,0 0.92228,0 -0.92228,0 -3.68922,0 -2.76694,0 1.5372,0 3.0744,0 4.61159,0 7.07114,0 14.14228,0 21.21346,0 2.45951,0 5.00571,0.64714 7.37855,0 1.2584,-0.34317 1.98433,-1.72344 2.76697,-2.76694 0.18447,-0.24592 0.30742,-0.92228 0,-0.92228 -0.30745,0 0,0.61487 0,0.92228 0,1.53722 0,3.07446 0,4.61166 0,6.60641 -1.52175,4.64743 6.45626,5.53387 0.61112,0.068 1.22974,0 1.84463,0 6.66264,0 7.70148,1.25087 12.91252,-4.61155 3.54456,-3.98762 -0.96318,-3.68933 1.84465,-3.68933 0.92233,0 1.84469,0 2.76701,0 0.61487,0 1.33304,-0.34109 1.84465,0 2.35508,1.57011 2.85322,3.94148 5.53394,4.61166 1.44619,0.36149 6.25427,-0.80116 6.4562,-0.92233 0.52726,-0.31633 -0.27501,-1.29468 0,-1.84461 0.1375,-0.275 0.61494,0 0.92239,0 0.30746,0 0.70492,-0.21742 0.92233,0 1.74185,1.74181 0.43525,1.74099 0.92229,3.68922 0.16676,0.66695 0.70494,2.49681 0.92232,1.84464 0.3433,-1.02994 -0.44545,-8.33232 0,-9.22323 0.1375,-0.27497 0.61487,0 0.92233,0 0.61487,0 1.40982,-0.43479 1.84461,0 0.55302,0.55302 2.52309,5.87317 3.68933,6.45631 2.14791,1.07393 5.78255,0.92228 8.30092,0.92228 5.84136,0 11.68271,0 17.52411,0 1.84465,0 3.69688,0.16701 5.53394,0 23.12845,-2.10253 -8.5622,0.56441 14.75719,-2.76693 3.04351,-0.43479 6.14881,0 9.2232,0 5.53395,0 11.06789,0 16.6018,0 5.84139,0 11.68276,0 17.52411,0 2.86021,0 -0.30824,1.2293 0.9224,1.84465 0.54997,0.27497 1.22978,0 1.84465,0 0.30742,0 0.82508,0.29166 0.92229,0 0.29165,-0.87501 -0.1018,-1.85028 0,-2.76694 0.20243,-1.82176 0.78833,-6.18833 1.84465,-8.30099 0.1944,-0.3889 0.49596,-0.83708 0.92228,-0.92232 0.43919,-0.0879 7.43942,-0.21538 8.30092,0 0.66695,0.16672 1.62732,0.27009 1.84472,0.92232 0.48611,1.45832 0,3.07442 0,4.61162 0,0.61487 -0.27501,1.29468 0,1.84465 0.13746,0.27497 0.61487,0 0.92229,0 0.30745,0 0.61491,0 0.92232,0 0.92233,0 1.84461,0 2.76694,0 1.53722,0 3.12034,-0.37285 4.61166,0 2.2715,0.56787 4.44853,1.56238 6.45626,2.76701 1.11846,0.6711 1.84464,1.84465 2.76694,2.76693 0.30744,0.30746 0.53342,0.72787 0.92231,0.92233 0.72727,0.36365 8.40605,0 10.14554,0 0.30745,0 0.61493,0 0.92239,0 0.30745,0 0.70492,0.21737 0.92232,0 0.21738,-0.21742 -0.0746,-0.62405 0,-0.92233 0.23579,-0.94317 0.31499,-2.00776 0.92229,-2.76693 1.6156,-2.01951 9.63647,-4.49418 10.14553,-4.61166 1.79745,-0.41476 3.68933,0 5.53398,0 0.24538,0 2.69079,-0.15229 2.76694,0 0.27497,0.54997 0,1.22978 0,1.84465 0,1.80823 -0.5696,5.88667 0.92229,7.37858 0.43478,0.43479 1.22978,0 1.84465,0 7.99492,0 -1.00707,-0.24119 8.30099,0.9223 2.06639,0.2583 4.36834,0 6.45618,0 0.30742,0 0.82509,0.29166 0.9223,0 0.37371,-1.12108 -0.34284,-4.383 0,-4.61155 0.76741,-0.51161 1.84464,0 2.76692,0 1.25361,0 11.02738,-0.27511 11.99025,0 1.06585,0.30452 1.7755,1.3489 2.76694,1.84461 0.67948,0.33976 5.02982,0 6.45638,0 5.22648,0 10.45298,0 15.67947,0 0.30746,0 0.88836,0.30555 0.92233,0 0.1386,-1.24771 -0.80542,-13.95176 0.92232,-15.67947 0.43475,-0.43478 1.22974,0 1.84461,0 3.38188,0 6.76371,0 10.1456,0 1.22974,0 2.58936,-0.54997 3.68925,0 2.14767,1.07386 3.83683,2.91292 5.53388,4.61166 3.1049,3.10795 8.86116,9.65645 12.0497,13.90774 0.66512,0.88679 1.34891,1.77549 1.84465,2.76694 0.13746,0.27501 -0.30745,0.92233 0,0.92233 0.30742,0 0,-0.61487 0,-0.92233 0,-2.15211 0,-4.30417 0,-6.45627 0,-0.92232 -0.41247,-1.94199 0,-2.76693 1.31244,-2.6249 4.15825,-3.35818 6.45616,-4.61155 13.16368,-7.18021 1.18444,-1.62459 10.14563,-4.61166 0.65216,-0.21741 1.19246,-0.70492 1.84462,-0.92232 0.29166,-0.0972 0.61487,0 0.92232,0 0.61487,0 1.50357,-0.51161 1.84461,0 4.89998,7.35001 2.79825,6.56572 4.61159,12.91246 0.18887,0.66104 0.43618,1.35858 0.92228,1.84472 0.21741,0.21737 0.82512,0.29166 0.92233,0 0.29165,-0.87501 0,-1.84469 0,-2.76704 0,-0.30742 -0.24596,-0.73783 0,-0.92229 5.14472,-3.85835 12.41081,-2.76694 18.44658,-2.76694 3.68927,0 7.37853,0 11.06775,0 0.9224,0 1.84475,0 2.76711,0 1.22979,0 2.48882,-0.2668 3.68927,0 1.61617,0.35915 3.00541,1.44308 4.61157,1.84462 0.89475,0.22367 1.86252,-0.18089 2.76694,0 0.67408,0.13483 1.17766,0.75558 1.84461,0.92232 1.81428,0.45355 3.70846,0.51662 5.53405,0.92229 0.94905,0.21089 1.84461,0.61487 2.76694,0.92232 1.22974,0.61491 2.3471,1.54643 3.68926,1.84472 1.50063,0.33349 3.0745,0 4.61173,0 2.15206,0 4.30413,0 6.4562,0"
       id="path4997-2-2" />
    <rect
       style="fill:#ffffff;stroke:#000000;stroke-width:4.06114;stroke-dasharray:none;stroke-opacity:1"
       id="rect4812-7-28"
       width="30.261518"
       height="30.261518"
       x="196.08934"
       y="421.13464" />
    <path
       style="fill:#ff0000;stroke:#fd0000;stroke-width:6.76857;stroke-linecap:butt;stroke-linejoin:miter;stroke-dasharray:none;stroke-opacity:1"
       d="M 232.9346,460.71604 H 795.73046"
       id="path4930-9-97" />
    <path
       style="fill:none;stroke:#000000;stroke-width:6.76857;stroke-linecap:butt;stroke-linejoin:miter;stroke-dasharray:none;stroke-opacity:1"
       d="m 248.2212,444.13501 c -0.22577,-1.58046 -1.56853,-8.806 -0.92232,-11.06782 0.2389,-0.83611 1.1211,-1.36229 1.84465,-1.84465 0.51161,-0.34104 1.22974,0 1.84461,0 0.61487,0 1.35274,-0.36891 1.84461,0 1.04311,0.78233 3.28926,5.65598 3.68937,6.4562 0.30742,0.61491 0.43618,1.35857 0.92229,1.84472 0.2174,0.21738 0.61487,0 0.92232,0 0.30742,0 0.61487,0 0.92233,0 1.84464,0 3.68929,0 5.53394,0 5.53394,0 11.06789,0 16.60179,0 2.76697,0 5.5661,0.42075 8.30092,0 2.59623,-0.39943 4.83021,-2.12993 7.37859,-2.76704 0.29825,-0.0746 0.70492,-0.21737 0.92229,0 0.2174,0.2174 -0.2558,0.75179 0,0.92232 0.80896,0.53929 1.85671,0.58103 2.76704,0.92239 1.55019,0.58136 3.07435,1.22979 4.61155,1.84462 1.53722,0.61491 3.27267,0.87085 4.61166,1.84465 2.1098,1.53436 3.68929,3.68929 5.53398,5.53394 0.61487,0.61487 1.22974,2.45952 1.84461,1.84465 0.86956,-0.86957 0,-2.45952 0,-3.68926 0,-2.45952 0,-4.91907 0,-7.3786 0,-0.57517 -0.55975,-4.24907 0.92233,-2.767 0.48606,0.48606 0.5098,1.29464 0.92228,1.84461 0.49857,0.66477 5.87478,6.16555 6.4563,6.45627 0.27496,0.1375 0.61487,0 0.92229,0 0.92232,0 1.84464,0 2.76693,0 4.61163,0 9.22324,0 13.83486,0 0.30746,0 0.87895,-0.30437 0.92233,0 0.30437,2.13648 0,4.31609 0,6.47414 0,1.84822 0,3.69646 0,5.54465 0,1.84469 0,3.68933 0,5.53398 0,0.61487 0,2.45948 0,1.84461 0,-5.5598 -1.67789,-12.38702 3.68933,-16.6018 6.67478,-5.24157 13.99227,-3.69523 21.72864,-3.69523 1.23036,0 2.46074,0 3.69109,0 0.30741,0 1.22974,0 0.92228,0 -0.92228,0 -3.68922,0 -2.76694,0 1.5372,0 3.0744,0 4.61159,0 7.07114,0 14.14228,0 21.21346,0 2.45951,0 5.00571,0.64714 7.37855,0 1.2584,-0.34317 1.98433,-1.72344 2.76697,-2.76694 0.18447,-0.24592 0.30742,-0.92228 0,-0.92228 -0.30745,0 0,0.61487 0,0.92228 0,1.53722 0,3.07446 0,4.61166 0,6.60641 -1.52175,4.64743 6.45626,5.53387 0.61112,0.068 1.22974,0 1.84463,0 6.66264,0 7.70148,1.25087 12.91252,-4.61155 3.54456,-3.98762 -0.96318,-3.68933 1.84465,-3.68933 0.92233,0 1.84469,0 2.76701,0 0.61487,0 1.33304,-0.34109 1.84465,0 2.35508,1.57011 2.85322,3.94148 5.53394,4.61166 1.44619,0.36149 6.25427,-0.80116 6.4562,-0.92233 0.52726,-0.31633 -0.27501,-1.29468 0,-1.84461 0.1375,-0.275 0.61494,0 0.92239,0 0.30746,0 0.70492,-0.21742 0.92233,0 1.74185,1.74181 0.43525,1.74099 0.92229,3.68922 0.16676,0.66695 0.70494,2.49681 0.92232,1.84464 0.3433,-1.02994 -0.44545,-8.33232 0,-9.22323 0.1375,-0.27497 0.61487,0 0.92233,0 0.61487,0 1.40982,-0.43479 1.84461,0 0.55302,0.55302 2.52309,5.87317 3.68933,6.45631 2.14791,1.07393 5.78255,0.92228 8.30092,0.92228 5.84136,0 11.68271,0 17.52411,0 1.84465,0 3.69688,0.16701 5.53394,0 23.12845,-2.10253 -8.5622,0.56441 14.75719,-2.76693 3.04351,-0.43479 6.14881,0 9.2232,0 5.53395,0 11.06789,0 16.6018,0 5.84139,0 11.68276,0 17.52411,0 2.86021,0 -0.30824,1.2293 0.9224,1.84465 0.54997,0.27497 1.22978,0 1.84465,0 0.30742,0 0.82508,0.29166 0.92229,0 0.29165,-0.87501 -0.1018,-1.85028 0,-2.76694 0.20243,-1.82176 0.78833,-6.18833 1.84465,-8.30099 0.1944,-0.3889 0.49596,-0.83708 0.92228,-0.92232 0.43919,-0.0879 7.43942,-0.21538 8.30092,0 0.66695,0.16672 1.62732,0.27009 1.84472,0.92232 0.48611,1.45832 0,3.07442 0,4.61162 0,0.61487 -0.27501,1.29468 0,1.84465 0.13746,0.27497 0.61487,0 0.92229,0 0.30745,0 0.61491,0 0.92232,0 0.92233,0 1.84461,0 2.76694,0 1.53722,0 3.12034,-0.37285 4.61166,0 2.2715,0.56787 4.44853,1.56238 6.45626,2.76701 1.11846,0.6711 1.84464,1.84465 2.76694,2.76693 0.30744,0.30746 0.53342,0.72787 0.92231,0.92233 0.72727,0.36365 8.40605,0 10.14554,0 0.30745,0 0.61493,0 0.92239,0 0.30745,0 0.70492,0.21737 0.92232,0 0.21738,-0.21742 -0.0746,-0.62405 0,-0.92233 0.23579,-0.94317 0.31499,-2.00776 0.92229,-2.76693 1.6156,-2.01951 9.63647,-4.49418 10.14553,-4.61166 1.79745,-0.41476 3.68933,0 5.53398,0 0.24538,0 2.69079,-0.15229 2.76694,0 0.27497,0.54997 0,1.22978 0,1.84465 0,1.80823 -0.5696,5.88667 0.92229,7.37858 0.43478,0.43479 1.22978,0 1.84465,0 7.99492,0 -1.00707,-0.24119 8.30099,0.9223 2.06639,0.2583 4.36834,0 6.45618,0 0.30742,0 0.82509,0.29166 0.9223,0 0.37371,-1.12108 -0.34284,-4.383 0,-4.61155 0.76741,-0.51161 1.84464,0 2.76692,0 1.25361,0 11.02738,-0.27511 11.99025,0 1.06585,0.30452 1.7755,1.3489 2.76694,1.84461 0.67948,0.33976 5.02982,0 6.45638,0 5.22648,0 10.45298,0 15.67947,0 0.30746,0 0.88836,0.30555 0.92233,0 0.1386,-1.24771 -0.80542,-13.95176 0.92232,-15.67947 0.43475,-0.43478 1.22974,0 1.84461,0 3.38188,0 6.76371,0 10.1456,0 1.22974,0 2.58936,-0.54997 3.68925,0 2.14767,1.07386 3.83683,2.91292 5.53388,4.61166 3.1049,3.10795 8.86116,9.65645 12.0497,13.90774 0.66512,0.88679 1.34891,1.77549 1.84465,2.76694 0.13746,0.27501 -0.30745,0.92233 0,0.92233 0.30742,0 0,-0.61487 0,-0.92233 0,-2.15211 0,-4.30417 0,-6.45627 0,-0.92232 -0.41247,-1.94199 0,-2.76693 1.31244,-2.6249 4.15825,-3.35818 6.45616,-4.61155 13.16368,-7.18021 1.18444,-1.62459 10.14563,-4.61166 0.65216,-0.21741 1.19246,-0.70492 1.84462,-0.92232 0.29166,-0.0972 0.61487,0 0.92232,0 0.61487,0 1.50357,-0.51161 1.84461,0 4.89998,7.35001 2.79825,6.56572 4.61159,12.91246 0.18887,0.66104 0.43618,1.35858 0.92228,1.84472 0.21741,0.21737 0.82512,0.29166 0.92233,0 0.29165,-0.87501 0,-1.84469 0,-2.76704 0,-0.30742 -0.24596,-0.73783 0,-0.92229 5.14472,-3.85835 12.41081,-2.76694 18.44658,-2.76694 3.68927,0 7.37853,0 11.06775,0 0.9224,0 1.84475,0 2.76711,0 1.22979,0 2.48882,-0.2668 3.68927,0 1.61617,0.35915 3.00541,1.44308 4.61157,1.84462 0.89475,0.22367 1.86252,-0.18089 2.76694,0 0.67408,0.13483 1.17766,0.75558 1.84461,0.92232 1.81428,0.45355 3.70846,0.51662 5.53405,0.92229 0.94905,0.21089 1.84461,0.61487 2.76694,0.92232 1.22974,0.61491 2.3471,1.54643 3.68926,1.84472 1.50063,0.33349 3.0745,0 4.61173,0 2.15206,0 4.30413,0 6.4562,0"
       id="path4997-2-3" />
    <rect
       style="fill:#ffffff;stroke:#000000;stroke-width:4.06114;stroke-dasharray:none;stroke-opacity:1"
       id="rect4812-7-6"
       width="30.261518"
       height="30.261518"
       x="192.47371"
       y="471.15726" />
    <path
       style="fill:#ff0000;stroke:#fd0000;stroke-width:6.76857;stroke-linecap:butt;stroke-linejoin:miter;stroke-dasharray:none;stroke-opacity:1"
       d="M 229.31898,510.73866 H 792.1148"
       id="path4930-9-1" />
    <path
       style="fill:none;stroke:#000000;stroke-width:6.76857;stroke-linecap:butt;stroke-linejoin:miter;stroke-dasharray:none;stroke-opacity:1"
       d="m 244.60558,494.15763 c -0.22578,-1.58046 -1.56853,-8.806 -0.92232,-11.06782 0.2389,-0.83611 1.1211,-1.36229 1.84465,-1.84465 0.51161,-0.34104 1.22974,0 1.84461,0 0.61487,0 1.35274,-0.36891 1.84461,0 1.04311,0.78233 3.28926,5.65598 3.68937,6.4562 0.30742,0.61491 0.43618,1.35857 0.92229,1.84472 0.2174,0.21738 0.61487,0 0.92232,0 0.30742,0 0.61487,0 0.92233,0 1.84464,0 3.68929,0 5.53394,0 5.53394,0 11.06789,0 16.60179,0 2.76697,0 5.5661,0.42075 8.30092,0 2.59623,-0.39943 4.83021,-2.12993 7.37859,-2.76704 0.29825,-0.0746 0.70492,-0.21737 0.92229,0 0.2174,0.2174 -0.2558,0.75179 0,0.92232 0.80896,0.53929 1.85671,0.58103 2.76704,0.92239 1.55019,0.58136 3.07435,1.22979 4.61155,1.84462 1.53722,0.61491 3.27267,0.87085 4.61166,1.84465 2.1098,1.53436 3.68929,3.68929 5.53398,5.53394 0.61487,0.61487 1.22974,2.45952 1.84461,1.84465 0.86956,-0.86957 0,-2.45952 0,-3.68926 0,-2.45952 0,-4.91907 0,-7.3786 0,-0.57517 -0.55975,-4.24907 0.92233,-2.767 0.48606,0.48606 0.5098,1.29464 0.92228,1.84461 0.49857,0.66477 5.87478,6.16555 6.4563,6.45627 0.27496,0.1375 0.61487,0 0.92229,0 0.92232,0 1.84464,0 2.76693,0 4.61163,0 9.22324,0 13.83486,0 0.30746,0 0.87895,-0.30437 0.92233,0 0.30437,2.13648 0,4.31609 0,6.47414 0,1.84822 0,3.69646 0,5.54465 0,1.84469 0,3.68933 0,5.53398 0,0.61487 0,2.45948 0,1.84461 0,-5.5598 -1.67789,-12.38702 3.68933,-16.6018 6.67478,-5.24157 13.99227,-3.69523 21.72864,-3.69523 1.23036,0 2.46074,0 3.69109,0 0.30741,0 1.22971,0 0.92231,0 -0.92231,0 -3.68925,0 -2.76697,0 1.5372,0 3.07437,0 4.61157,0 7.0712,0 14.1423,0 21.2135,0 2.4595,0 5.0057,0.64714 7.3785,0 1.2584,-0.34317 1.9844,-1.72344 2.767,-2.76694 0.1845,-0.24592 0.3074,-0.92228 0,-0.92228 -0.3075,0 0,0.61487 0,0.92228 0,1.53722 0,3.07446 0,4.61166 0,6.60641 -1.5218,4.64743 6.4563,5.53387 0.6111,0.068 1.2297,0 1.8446,0 6.6626,0 7.7015,1.25087 12.9125,-4.61155 3.5446,-3.98762 -0.9632,-3.68933 1.8447,-3.68933 0.9223,0 1.8446,0 2.767,0 0.6148,0 1.333,-0.34109 1.8446,0 2.3551,1.57011 2.8532,3.94148 5.534,4.61166 1.4461,0.36149 6.2542,-0.80116 6.4562,-0.92233 0.5272,-0.31633 -0.2751,-1.29468 0,-1.84461 0.1375,-0.275 0.6149,0 0.9223,0 0.3075,0 0.705,-0.21742 0.9224,0 1.7418,1.74181 0.4352,1.74099 0.9223,3.68922 0.1667,0.66695 0.7049,2.49681 0.9223,1.84464 0.3433,-1.02994 -0.4455,-8.33232 0,-9.22323 0.1375,-0.27497 0.6149,0 0.9223,0 0.6149,0 1.4098,-0.43479 1.8446,0 0.553,0.55302 2.5231,5.87317 3.6894,6.45631 2.1479,1.07393 5.7825,0.92228 8.3009,0.92228 5.8413,0 11.6827,0 17.5241,0 1.8446,0 3.6969,0.16701 5.5339,0 23.1285,-2.10253 -8.5622,0.56441 14.7572,-2.76693 3.0435,-0.43479 6.1488,0 9.2232,0 5.534,0 11.0679,0 16.6018,0 5.8414,0 11.6828,0 17.5241,0 2.8602,0 -0.3082,1.2293 0.9224,1.84465 0.55,0.27497 1.2298,0 1.8447,0 0.3074,0 0.8251,0.29166 0.9223,0 0.2916,-0.87501 -0.1018,-1.85028 0,-2.76694 0.2024,-1.82176 0.7883,-6.18833 1.8446,-8.30099 0.1944,-0.3889 0.496,-0.83708 0.9223,-0.92232 0.4392,-0.0879 7.4394,-0.21538 8.3009,0 0.667,0.16672 1.6273,0.27009 1.8447,0.92232 0.4861,1.45832 0,3.07442 0,4.61162 0,0.61487 -0.275,1.29468 0,1.84465 0.1375,0.27497 0.6149,0 0.9223,0 0.3075,0 0.6149,0 0.9223,0 0.9224,0 1.8447,0 2.767,0 1.5372,0 3.1203,-0.37285 4.6116,0 2.2715,0.56787 4.4486,1.56238 6.4563,2.76701 1.1185,0.6711 1.8446,1.84465 2.7669,2.76693 0.3075,0.30746 0.5335,0.72787 0.9224,0.92233 0.7272,0.36365 8.406,0 10.1455,0 0.3074,0 0.6149,0 0.9224,0 0.3074,0 0.7049,0.21737 0.9223,0 0.2174,-0.21742 -0.075,-0.62405 0,-0.92233 0.2358,-0.94317 0.315,-2.00776 0.9223,-2.76693 1.6156,-2.01951 9.6365,-4.49418 10.1455,-4.61166 1.7975,-0.41476 3.6894,0 5.534,0 0.2454,0 2.6908,-0.15229 2.7669,0 0.275,0.54997 0,1.22978 0,1.84465 0,1.80823 -0.5696,5.88667 0.9223,7.37858 0.4348,0.43479 1.2298,0 1.8447,0 7.9949,0 -1.0071,-0.24119 8.301,0.9223 2.0664,0.2583 4.3683,0 6.4562,0 0.3074,0 0.825,0.29166 0.9223,0 0.3737,-1.12108 -0.3429,-4.383 0,-4.61155 0.7674,-0.51161 1.8446,0 2.7669,0 1.2536,0 11.0274,-0.27511 11.9902,0 1.0659,0.30452 1.7755,1.3489 2.767,1.84461 0.6794,0.33976 5.0298,0 6.4563,0 5.2265,0 10.453,0 15.6795,0 0.3075,0 0.8884,0.30555 0.9223,0 0.1386,-1.24771 -0.8054,-13.95176 0.9224,-15.67947 0.4347,-0.43478 1.2297,0 1.8446,0 3.3819,0 6.7637,0 10.1456,0 1.2297,0 2.5893,-0.54997 3.6892,0 2.1477,1.07386 3.8369,2.91292 5.5339,4.61166 3.1049,3.10795 8.8612,9.65645 12.0497,13.90774 0.6651,0.88679 1.3489,1.77549 1.8447,2.76694 0.1374,0.27501 -0.3075,0.92233 0,0.92233 0.3074,0 0,-0.61487 0,-0.92233 0,-2.15211 0,-4.30417 0,-6.45627 0,-0.92232 -0.4125,-1.94199 0,-2.76693 1.3124,-2.6249 4.1582,-3.35818 6.4561,-4.61155 13.1637,-7.18021 1.1845,-1.62459 10.1456,-4.61166 0.6522,-0.21741 1.1925,-0.70492 1.8447,-0.92232 0.2916,-0.0972 0.6148,0 0.9223,0 0.6149,0 1.5036,-0.51161 1.8446,0 4.9,7.35001 2.7982,6.56572 4.6116,12.91246 0.1889,0.66104 0.4362,1.35858 0.9223,1.84472 0.2174,0.21737 0.8251,0.29166 0.9223,0 0.2916,-0.87501 0,-1.84469 0,-2.76704 0,-0.30742 -0.246,-0.73783 0,-0.92229 5.1447,-3.85835 12.4108,-2.76694 18.4466,-2.76694 3.6892,0 7.3785,0 11.0677,0 0.9224,0 1.8448,0 2.7671,0 1.2298,0 2.4889,-0.2668 3.6893,0 1.6162,0.35915 3.0054,1.44308 4.6116,1.84462 0.8947,0.22367 1.8625,-0.18089 2.7669,0 0.6741,0.13483 1.1777,0.75558 1.8446,0.92232 1.8143,0.45355 3.7085,0.51662 5.5341,0.92229 0.949,0.21089 1.8446,0.61487 2.7669,0.92232 1.2298,0.61491 2.3471,1.54643 3.6893,1.84472 1.5006,0.33349 3.0745,0 4.6117,0 2.1521,0 4.3041,0 6.4562,0"
       id="path4997-2-29" />
    <path
       style="fill:none;stroke:#2000ff;stroke-width:3.38428;stroke-linecap:butt;stroke-linejoin:miter;stroke-dasharray:none;stroke-opacity:1"
       d="m 194.88635,260.56661 c 1.28092,1.45557 2.42067,3.04872 3.84274,4.36675 0.98308,0.91114 2.27958,1.42401 3.31871,2.27069 1.05423,0.859 1.36702,1.71635 2.27072,2.62004 0.49173,0.4917 2.35336,1.72581 2.62002,1.92137 0.30064,0.22045 0.55885,0.49851 0.87336,0.69865 0.32952,0.20971 0.70893,0.33027 1.04804,0.52404 0.4769,0.2725 0.9229,0.59657 1.39733,0.87332 1.25421,0.7316 0.16042,-0.0887 1.39736,0.87336 0.23135,0.17995 1.01699,0.85782 1.39737,1.04801 0.16468,0.0823 0.35932,0.0923 0.524,0.17468 0.0736,0.0368 0.11642,0.23288 0.17468,0.17468 0.28511,-0.28514 0.17465,-1.4219 0.17465,-1.57204 0,-0.58224 0,-1.16445 0,-1.74669 0,-0.23288 -0.0244,-0.46705 0,-0.69868 0.30924,-2.93782 0.1856,-2.12874 1.04804,-4.71607 0.17464,-0.524 0.30258,-1.06598 0.524,-1.57204 0.18815,-0.43005 0.46577,-0.81513 0.69869,-1.22269 0.49198,-1.26032 0.99463,-2.51653 1.47598,-3.78098 0.3457,-0.90807 0.69137,-2.17431 1.25101,-3.05361 1.84583,-2.90003 -0.85054,2.23139 1.92277,-2.62167 0.59675,-1.04428 1.07948,-2.14967 1.61839,-3.22489 0.36015,-0.7186 0.44681,-1.00621 0.87504,-1.57721 0.42282,-0.56375 1.22441,-0.48159 1.74673,-0.87332 0.34545,-0.2591 0.73182,-0.73182 1.048,-1.04804 0.11642,-0.11642 0.23288,-0.23288 0.34933,-0.34933 0.11642,-0.11642 0.26766,-0.20633 0.34935,-0.34931 0.15556,-0.27225 0.19377,-0.60112 0.34933,-0.87336 4e-5,-5e-5 0.43668,-0.43669 0.52401,-0.52401"
       id="path5031" />
    <path
       style="fill:none;stroke:#2000ff;stroke-width:3.38428;stroke-linecap:butt;stroke-linejoin:miter;stroke-dasharray:none;stroke-opacity:1"
       d="m 196.04534,425.21149 c 1.28092,1.45557 2.42067,3.04872 3.84274,4.36675 0.98308,0.91114 2.27958,1.42401 3.31871,2.27069 1.05423,0.859 1.36702,1.71635 2.27072,2.62004 0.49173,0.4917 2.35336,1.72581 2.62002,1.92137 0.30064,0.22045 0.55885,0.49851 0.87336,0.69865 0.32952,0.20971 0.70893,0.33027 1.04804,0.52404 0.4769,0.2725 0.9229,0.59657 1.39733,0.87332 1.25421,0.7316 0.16042,-0.0887 1.39736,0.87336 0.23135,0.17995 1.01699,0.85782 1.39737,1.04801 0.16468,0.0823 0.35932,0.0923 0.524,0.17468 0.0736,0.0368 0.11642,0.23288 0.17468,0.17468 0.28511,-0.28514 0.17465,-1.4219 0.17465,-1.57204 0,-0.58224 0,-1.16445 0,-1.74669 0,-0.23288 -0.0244,-0.46705 0,-0.69868 0.30924,-2.93782 0.1856,-2.12874 1.04804,-4.71607 0.17464,-0.524 0.30258,-1.06598 0.524,-1.57204 0.18815,-0.43005 0.46577,-0.81513 0.69869,-1.22269 0.49198,-1.26032 0.99463,-2.51653 1.47598,-3.78098 0.3457,-0.90807 0.69137,-2.17431 1.25101,-3.05361 1.84583,-2.90003 -0.85054,2.23139 1.92277,-2.62167 0.59675,-1.04428 1.07948,-2.14967 1.61839,-3.22489 0.36015,-0.7186 0.44681,-1.00621 0.87504,-1.57721 0.42282,-0.56375 1.22441,-0.48159 1.74673,-0.87332 0.34545,-0.2591 0.73182,-0.73182 1.048,-1.04804 0.11642,-0.11642 0.23288,-0.23288 0.34933,-0.34933 0.11642,-0.11642 0.26766,-0.20633 0.34935,-0.34931 0.15556,-0.27225 0.19377,-0.60112 0.34933,-0.87336 4e-5,-5e-5 0.43668,-0.43669 0.52401,-0.52401"
       id="path5031-3" />
  </g>
</svg>
